<svg xmlns="http://www.w3.org/2000/svg" version="1.1" viewBox="76.422 121.94999999999999 663.4079999999999 421.134" style="max-height: 500px" width="663.4079999999999" height="421.134">
<path transform="translate(0,0)" fill="#FEFEFE" d="M0 0 C268.29 0 536.58 0 813 0 C813 268.29 813 536.58 813 813 C544.71 813 276.42 813 0 813 C0 544.71 0 276.42 0 0 Z"/>
<path transform="translate(402.08544921875,158.533447265625)" fill="#ED5665" d="M0 0 C3.67639992 0.02914667 7.35136366 0.02050508 11.02783203 0.00756836 C25.23498234 0.01952439 38.93942834 0.87863184 52.91455078 3.46655273 C54.18959473 3.70140381 55.46463867 3.93625488 56.77832031 4.17822266 C60.06702581 4.82719326 63.33422934 5.53250495 66.60205078 6.27905273 C67.7414209 6.5369458 68.88079102 6.79483887 70.0546875 7.06054688 C79.57242201 9.27498941 88.78609578 11.9847895 97.91455078 15.46655273 C98.59565918 15.7251709 99.27676758 15.98378906 99.97851562 16.25024414 C105.01624574 18.19057129 109.97625327 20.28655499 114.91455078 22.46655273 C115.72263184 22.82201172 116.53071289 23.1774707 117.36328125 23.54370117 C155.68642055 40.60069359 192.49353409 67.804657 217.91455078 101.46655273 C218.8751513 102.71030266 219.83611624 103.95377117 220.79736328 105.19702148 C250.20770438 143.52845295 276.91455078 196.02067617 276.91455078 245.46655273 C243.25455078 245.46655273 209.59455078 245.46655273 174.91455078 245.46655273 C174.25455078 238.53655273 173.59455078 231.60655273 172.91455078 224.46655273 C171.98866326 219.65694243 171.03302497 215.05373912 169.78955078 210.34155273 C169.48388184 209.15851563 169.17821289 207.97547852 168.86328125 206.7565918 C163.22262797 185.73052118 153.67402951 166.3742002 139.91455078 149.46655273 C139.45677246 148.90194336 138.99899414 148.33733398 138.52734375 147.75561523 C111.50415893 114.65198796 71.95407102 93.28699745 29.32249451 88.68318176 C25.68971471 88.35636119 22.07213641 88.26652445 18.42626953 88.22827148 C17.64919647 88.21856827 16.87212341 88.20886505 16.07150269 88.1988678 C13.581632 88.17412226 11.09203182 88.16136836 8.60205078 88.15405273 C7.75206512 88.15143433 6.90207947 88.14881592 6.02633667 88.14611816 C-6.0204601 88.14213852 -17.43895193 88.64728395 -29.10791016 91.91967773 C-31.03556253 92.45275691 -32.986703 92.89848057 -34.93701172 93.34155273 C-75.94265834 103.01025257 -112.85940986 130.99086706 -135.21044922 166.27905273 C-145.01605841 182.14437225 -152.36191519 198.72232266 -156.83544922 216.84155273 C-157.13358521 218.02430786 -157.13358521 218.02430786 -157.43774414 219.23095703 C-159.47633952 227.98739266 -160.07237388 236.34887468 -161.08544922 245.46655273 C-196.06544922 245.46655273 -231.04544922 245.46655273 -267.08544922 245.46655273 C-267.08544922 233.07426248 -267.08544922 233.07426248 -265.98388672 227.75170898 C-265.74428223 226.58124023 -265.50467773 225.41077148 -265.2578125 224.20483398 C-264.86311768 222.38532227 -264.86311768 222.38532227 -264.46044922 220.52905273 C-264.1882959 219.25288086 -263.91614258 217.97670898 -263.63574219 216.66186523 C-253.55556503 170.50801664 -232.60207099 127.78611947 -201.08544922 92.46655273 C-200.62396484 91.94867188 -200.16248047 91.43079102 -199.68701172 90.8972168 C-191.31075049 81.54333944 -182.77494138 72.61904096 -172.94482422 64.77124023 C-171.05336534 63.2467037 -169.18778648 61.68943328 -167.35107422 60.09936523 C-121.98224804 20.87162326 -59.56329727 -0.51368267 0 0 Z"/>
<path transform="translate(509.09375,302.625)" fill="#EB4892" d="M0 0 C20.14713598 17.63883208 34.56789322 40.63833444 41.90625 66.375 C42.19242188 67.37418457 42.19242188 67.37418457 42.484375 68.39355469 C45.62067285 79.60899819 46.24647597 89.49906745 46.90625 101.375 C-50.11375 101.375 -147.13375 101.375 -247.09375 101.375 C-247.09375 93.25640005 -247.01279791 86.97826931 -245.09375 79.375 C-244.87372314 78.48345215 -244.65369629 77.5919043 -244.42700195 76.67333984 C-234.51439403 38.46828672 -210.10748523 5.12627838 -176.28515625 -15.36914062 C-119.46289026 -47.93305955 -49.8986378 -42.67979933 0 0 Z"/>
<path transform="translate(402.41259765625,203.7392578125)" fill="#FECD54" d="M0 0 C2.45256434 0.01069927 4.90439159 0.00005026 7.35693359 -0.01269531 C17.60109916 -0.02162821 27.45290983 0.75338303 37.58740234 2.26074219 C39.13937604 2.46340644 40.69143728 2.66540367 42.24365234 2.86621094 C60.23906927 5.59112671 77.97458839 10.81816749 94.58740234 18.26074219 C95.30669922 18.57736816 96.02599609 18.89399414 96.76708984 19.22021484 C113.58806444 26.67850472 129.18752801 35.77808377 143.58740234 47.26074219 C144.48458984 47.96585938 145.38177734 48.67097656 146.30615234 49.39746094 C185.64687781 80.88134611 212.91441722 123.55122689 226.02490234 172.19824219 C226.25999512 173.05998047 226.49508789 173.92171875 226.73730469 174.80957031 C228.89453657 183.33615327 229.53400463 191.30686159 230.58740234 200.26074219 C212.10740234 200.26074219 193.62740234 200.26074219 174.58740234 200.26074219 C173.92740234 193.33074219 173.26740234 186.40074219 172.58740234 179.26074219 C171.66151482 174.45113188 170.70587653 169.84792857 169.46240234 165.13574219 C169.1567334 163.95270508 168.85106445 162.76966797 168.53613281 161.55078125 C162.89547953 140.52471064 153.34688107 121.16838965 139.58740234 104.26074219 C139.12962402 103.69613281 138.6718457 103.13152344 138.20019531 102.54980469 C111.17701049 69.44617741 71.62692258 48.0811869 28.99534607 43.47737122 C25.36256628 43.15055064 21.74498798 43.06071391 18.09912109 43.02246094 C16.93351151 43.00790611 16.93351151 43.00790611 15.74435425 42.99305725 C13.25448356 42.96831171 10.76488338 42.95555781 8.27490234 42.94824219 C7.42491669 42.94562378 6.57493103 42.94300537 5.69918823 42.94030762 C-6.34760854 42.93632798 -17.76610037 43.44147341 -29.43505859 46.71386719 C-31.36271096 47.24694636 -33.31385143 47.69267002 -35.26416016 48.13574219 C-76.26980678 57.80444202 -113.1865583 85.78505651 -135.53759766 121.07324219 C-145.34320685 136.9385617 -152.68906363 153.51651211 -157.16259766 171.63574219 C-157.46073364 172.81849731 -157.46073364 172.81849731 -157.76489258 174.02514648 C-159.80348796 182.78158211 -160.39952232 191.14306413 -161.41259766 200.26074219 C-181.54259766 200.26074219 -201.67259766 200.26074219 -222.41259766 200.26074219 C-211.66700707 138.47359632 -183.94513829 81.34006543 -131.41259766 44.26074219 C-130.74470215 43.78620605 -130.07680664 43.31166992 -129.38867188 42.82275391 C-100.49572072 22.4887204 -67.90205973 7.71409178 -32.74951172 2.609375 C-30.98218208 2.34571571 -29.21906627 2.05360038 -27.45849609 1.74804688 C-18.26177745 0.24768391 -9.30168246 -0.04808983 0 0 Z"/>
<path transform="translate(580.26171875,250.38671875)" fill="#FB6E51" d="M0 0 C0.90363281 0.86238281 1.80726563 1.72476563 2.73828125 2.61328125 C3.61097656 3.44472656 4.48367188 4.27617187 5.3828125 5.1328125 C11.32731641 10.93121493 16.61216644 17.08673302 21.73828125 23.61328125 C22.52976562 24.59941406 23.32125 25.58554687 24.13671875 26.6015625 C51.31018265 61.01842608 74.73828125 107.93504889 74.73828125 152.61328125 C82.32828125 152.61328125 89.91828125 152.61328125 97.73828125 152.61328125 C98.06828125 151.29328125 98.39828125 149.97328125 98.73828125 148.61328125 C98.73828125 150.26328125 98.73828125 151.91328125 98.73828125 153.61328125 C83.55828125 153.61328125 68.37828125 153.61328125 52.73828125 153.61328125 C51.5251594 148.15423292 50.41488944 142.85165281 49.48828125 137.36328125 C43.56746395 104.84367036 29.69245937 72.96094093 9.73828125 46.61328125 C9.06539062 45.72253906 8.3925 44.83179688 7.69921875 43.9140625 C5.75987079 41.43600677 3.76644402 39.01920309 1.73828125 36.61328125 C1.28308105 36.06929688 0.82788086 35.5253125 0.35888672 34.96484375 C-8.77329578 24.06926685 -18.12413128 14.50766449 -29.26171875 5.61328125 C-30.05320312 4.95457031 -30.8446875 4.29585938 -31.66015625 3.6171875 C-78.06238664 -34.69163061 -138.82957874 -49.92780936 -198.12402344 -45.0703125 C-205.25454195 -44.23690154 -212.24972354 -42.90785924 -219.26171875 -41.38671875 C-220.16051758 -41.2047998 -221.05931641 -41.02288086 -221.98535156 -40.83544922 C-274.54512647 -30.16133159 -325.14783589 1.63066869 -356.26171875 45.61328125 C-356.74302246 46.29326172 -357.22432617 46.97324219 -357.72021484 47.67382812 C-379.86075421 79.29708165 -392.16425495 112.55618131 -398.78442383 150.44628906 C-399.26171875 152.61328125 -399.26171875 152.61328125 -400.26171875 153.61328125 C-401.67396921 153.70615385 -403.09080809 153.73074897 -404.50610352 153.72680664 C-405.40696182 153.72673111 -406.30782013 153.72665558 -407.23597717 153.72657776 C-408.21513596 153.72141647 -409.19429474 153.71625519 -410.203125 153.7109375 C-411.20053207 153.70952255 -412.19793915 153.7081076 -413.22557068 153.70664978 C-416.42514999 153.70103239 -419.62466044 153.68847696 -422.82421875 153.67578125 C-424.9876292 153.67076849 -427.15104074 153.6662052 -429.31445312 153.66210938 C-434.630232 153.65105732 -439.94597046 153.63430229 -445.26171875 153.61328125 C-445.26171875 153.28328125 -445.26171875 152.95328125 -445.26171875 152.61328125 C-437.67171875 152.61328125 -430.08171875 152.61328125 -422.26171875 152.61328125 C-422.26171875 149.97328125 -422.26171875 147.33328125 -422.26171875 144.61328125 C-421.96216379 142.5346973 -421.59639568 140.4644054 -421.16015625 138.41015625 C-420.92071289 137.27545898 -420.68126953 136.14076172 -420.43457031 134.97167969 C-420.1712793 133.7809082 -419.90798828 132.59013672 -419.63671875 131.36328125 C-419.36311523 130.11836914 -419.08951172 128.87345703 -418.80761719 127.59082031 C-410.4403161 90.30781741 -394.68123429 56.82809663 -371.26171875 26.61328125 C-370.25044922 25.30810547 -370.25044922 25.30810547 -369.21875 23.9765625 C-352.62183019 3.14478135 -332.87043596 -15.24192486 -310.26171875 -29.38671875 C-309.69517578 -29.74330566 -309.12863281 -30.09989258 -308.54492188 -30.46728516 C-277.4373878 -49.94749175 -244.39867543 -61.42019057 -208.26171875 -67.38671875 C-207.2267627 -67.56468994 -206.19180664 -67.74266113 -205.12548828 -67.92602539 C-130.70087594 -79.89868042 -54.00288278 -50.49525304 0 0 Z"/>
<path transform="translate(409.974609375,224.814697265625)" fill="#A4D469" d="M0 0 C2.12585938 -0.0021722 4.25118593 -0.02035295 6.37695312 -0.03930664 C20.17250139 -0.09807904 33.4519684 1.40655825 46.83789062 4.87280273 C47.85560547 5.13335449 48.87332031 5.39390625 49.921875 5.66235352 C81.44212595 13.97609075 109.53335412 29.54933802 133.02539062 52.18530273 C133.60111816 52.73911621 134.1768457 53.29292969 134.77001953 53.86352539 C142.39905691 61.24506764 149.51032497 68.78492503 156.02539062 77.18530273 C156.81171875 78.15467773 157.59804688 79.12405273 158.40820312 80.12280273 C179.28998174 106.30685116 200.02539062 144.84587636 200.02539062 179.18530273 C189.13539063 179.18530273 178.24539063 179.18530273 167.02539062 179.18530273 C166.83976562 176.29780273 166.65414063 173.41030273 166.46289062 170.43530273 C163.75570951 138.74880473 152.13230137 107.89267466 132.02539062 83.18530273 C131.5676123 82.62069336 131.10983398 82.05608398 130.63818359 81.47436523 C103.61499877 48.37073796 64.06491086 27.00574745 21.43333435 22.40193176 C17.80055456 22.07511119 14.18297626 21.98527445 10.53710938 21.94702148 C9.76003632 21.93731827 8.98296326 21.92761505 8.18234253 21.9176178 C5.69247184 21.89287226 3.20287166 21.88011836 0.71289062 21.87280273 C-0.13709503 21.87018433 -0.98708069 21.86756592 -1.86282349 21.86486816 C-13.90962026 21.86088852 -25.32811208 22.36603395 -36.99707031 25.63842773 C-38.92472268 26.17150691 -40.87586315 26.61723057 -42.82617188 27.06030273 C-83.8318185 36.72900257 -120.74857002 64.70961706 -143.09960938 99.99780273 C-152.90521857 115.86312225 -160.25107535 132.44107266 -164.72460938 150.56030273 C-164.9233667 151.34880615 -165.12212402 152.13730957 -165.3269043 152.94970703 C-167.36549968 161.70614266 -167.96153404 170.06762468 -168.97460938 179.18530273 C-181.51460937 179.18530273 -194.05460938 179.18530273 -206.97460938 179.18530273 C-201.36976638 142.75382326 -188.22426084 109.06882878 -164.97460938 80.18530273 C-164.15734375 79.16436523 -163.34007812 78.14342773 -162.49804688 77.09155273 C-126.87742657 33.41444313 -75.33332872 7.18927452 -19.51367188 0.62670898 C-13.01947075 0.00762639 -6.51741302 -0.00074129 0 0 Z"/>
<path transform="translate(403,425)" fill="#EC4B94" d="M0 0 C5.28 0 10.56 0 16 0 C17.56327482 3.12654963 17.46182965 6.52393004 17.71875 9.96484375 C17.78155151 10.75395645 17.84435303 11.54306915 17.90905762 12.35609436 C18.10998254 14.88293751 18.30556994 17.41014932 18.5 19.9375 C18.75609565 23.25947163 19.01724047 26.58099289 19.28125 29.90234375 C19.3672345 31.05089088 19.3672345 31.05089088 19.45495605 32.22264099 C19.70201272 35.33077247 20.00959788 38.02879363 21 41 C21.08564209 40.00669678 21.17128418 39.01339355 21.25952148 37.98999023 C21.57998499 34.27920623 21.90302142 30.56864981 22.22680664 26.8581543 C22.3661728 25.2569776 22.50485571 23.65574126 22.64282227 22.05444336 C22.84208291 19.74316371 23.0438589 17.43211483 23.24609375 15.12109375 C23.33678383 14.0597245 23.33678383 14.0597245 23.42930603 12.97691345 C23.81423939 8.61223511 24.37882152 4.34824936 25 0 C30.28 0 35.56 0 41 0 C41.08564209 1.13542236 41.17128418 2.27084473 41.25952148 3.44067383 C41.57810295 7.65093383 41.90169493 11.86079628 42.22680664 16.07055664 C42.36684811 17.89304306 42.50552832 19.71563462 42.64282227 21.53833008 C42.84033631 24.15735202 43.04273364 26.77595757 43.24609375 29.39453125 C43.3065538 30.21025101 43.36701385 31.02597076 43.42930603 31.8664093 C43.68329969 35.08675377 43.97416569 37.92249706 45 41 C45.08564209 39.82904785 45.17128418 38.6580957 45.25952148 37.45166016 C45.57770237 33.11654076 45.90140915 28.78184882 46.22680664 24.44726562 C46.36699317 22.5694484 46.5056711 20.69151792 46.64282227 18.81347656 C46.83996529 16.11752787 47.04249039 13.42203001 47.24609375 10.7265625 C47.33678383 9.46243027 47.33678383 9.46243027 47.42930603 8.17276001 C47.88612829 2.22774341 47.88612829 2.22774341 49 0 C54.28 0 59.56 0 65 0 C64.44686714 9.62451179 63.41880807 19.11719514 62.22949219 28.68017578 C61.48595264 34.73509601 60.80101368 40.79184105 60.20703125 46.86328125 C60.10977753 47.85671036 60.10977753 47.85671036 60.01055908 48.87020874 C59.69684549 52.09514311 59.39026158 55.32062863 59.09033203 58.546875 C58.36713401 66.10506366 57.33072208 73.5239691 56 81 C49.4 81 42.8 81 36 81 C35.01 71.1 34.02 61.2 33 51 C32.67 51 32.34 51 32 51 C31.94465088 51.69561035 31.88930176 52.3912207 31.83227539 53.10791016 C31.57833145 56.28049178 31.32045179 59.45274183 31.0625 62.625 C30.97548828 63.71941406 30.88847656 64.81382812 30.79882812 65.94140625 C30.71181641 67.00488281 30.62480469 68.06835938 30.53515625 69.1640625 C30.456604 70.13811035 30.37805176 71.1121582 30.29711914 72.11572266 C29.99044125 75.09279131 29.49201706 78.04789764 29 81 C22.4 81 15.8 81 9 81 C7.63081732 73.82554065 6.53065827 66.7163327 5.78125 59.453125 C5.67784302 58.4800238 5.57443604 57.50692261 5.46789551 56.5043335 C5.25089192 54.45410424 5.0358701 52.40366433 4.82275391 50.35302734 C4.50505854 47.29863393 4.18082254 44.24499232 3.85546875 41.19140625 C2.4056144 27.47419161 1.15000342 13.74543194 0 0 Z"/>
<path transform="translate(502,425)" fill="#EC4993" d="M0 0 C27 0 27 0 34 3 C38.85177006 8.10712638 39.22584016 12.51259103 39.3125 19.3125 C39.34150391 20.05951172 39.37050781 20.80652344 39.40039062 21.57617188 C39.46090398 26.87807239 38.4531266 29.76527517 35 34 C34.34 34.66 33.68 35.32 33 36 C33.42152344 36.45890625 33.84304688 36.9178125 34.27734375 37.390625 C34.82519531 38.00421875 35.37304688 38.6178125 35.9375 39.25 C36.48277344 39.85328125 37.02804687 40.4565625 37.58984375 41.078125 C42.04625003 47.15167595 40.53414404 58.46991764 39.69140625 65.6171875 C38.51631908 70.96227428 36.03807167 75.20896732 31.9375 78.8125 C22.43341259 84.63758583 11.11696526 81 0 81 C0 54.27 0 27.54 0 0 Z"/>
<path transform="translate(385.875,425.5)" fill="#EC4C94" d="M0 0 C4.69588285 2.34794142 6.97021963 5.8152766 9.125 10.5 C10.09030339 13.39591017 10.2620513 15.27410587 10.28613281 18.28759766 C10.29574036 19.25935944 10.3053479 20.23112122 10.31524658 21.23233032 C10.31949646 22.28230194 10.32374634 23.33227356 10.328125 24.4140625 C10.33382507 25.49827484 10.33952515 26.58248718 10.34539795 27.69955444 C10.35485096 29.99777246 10.36138312 32.29600405 10.36523438 34.59423828 C10.37490434 38.0904145 10.40591079 41.58599391 10.4375 45.08203125 C10.44403383 47.31770485 10.44928281 49.55338265 10.453125 51.7890625 C10.4654718 52.82688873 10.4778186 53.86471497 10.49053955 54.93399048 C10.46747035 62.54922684 9.53933938 69.62187076 4.875 75.875 C0.03269399 80.49720119 -3.91080316 81.6624617 -10.4375 81.875 C-16.46142679 81.68546468 -19.93969477 80.12025554 -24.5625 76.25 C-30.38881716 69.32140662 -30.33097251 62.75950232 -30.30859375 54.03125 C-30.3138356 52.83697388 -30.31907745 51.64269775 -30.32447815 50.41223145 C-30.33088466 47.89413224 -30.32957919 45.37600305 -30.32104492 42.85791016 C-30.31252836 39.01280329 -30.34132927 35.16917932 -30.37304688 31.32421875 C-30.37465891 28.87239628 -30.3740813 26.42057118 -30.37109375 23.96875 C-30.38232773 22.82378052 -30.39356171 21.67881104 -30.40513611 20.49914551 C-30.34800282 13.93363226 -29.81722425 9.82465689 -25.875 4.5 C-18.62154751 -2.38148057 -9.27014391 -3.50343232 0 0 Z"/>
<path transform="translate(620.875,425.5625)" fill="#EC4993" d="M0 0 C5.37364256 2.69645146 8.22268135 6.73054406 10.125 12.4375 C10.2271846 14.09228205 10.27341318 15.75080615 10.28613281 17.40869141 C10.29574036 18.42049469 10.3053479 19.43229797 10.31524658 20.47476196 C10.31949646 21.56848114 10.32374634 22.66220032 10.328125 23.7890625 C10.33382507 24.91766693 10.33952515 26.04627136 10.34539795 27.20907593 C10.35485178 29.60145123 10.36138344 31.99383958 10.36523438 34.38623047 C10.37490637 38.02725352 10.40591305 41.66770402 10.4375 45.30859375 C10.44403359 47.63541332 10.44928266 49.96223693 10.453125 52.2890625 C10.4654718 53.37063629 10.4778186 54.45221008 10.49053955 55.56655884 C10.46979877 62.68990345 9.99413515 69.74569814 5.4765625 75.55859375 C-1.16785645 80.62458738 -6.4190309 82.46871574 -14.875 81.4375 C-20.7732034 79.63527118 -24.48937879 76.51593182 -27.875 71.4375 C-30.20883963 65.21751501 -30.19730396 59.25264921 -30.2109375 52.66015625 C-30.2175943 51.53483994 -30.2242511 50.40952362 -30.23110962 49.25010681 C-30.24120512 46.87744779 -30.2459276 44.50476055 -30.24560547 42.13208008 C-30.24998148 38.51530991 -30.28634392 34.89975797 -30.32421875 31.28320312 C-30.33008706 28.97135831 -30.33405636 26.65950774 -30.3359375 24.34765625 C-30.35030853 23.27346939 -30.36467957 22.19928253 -30.37948608 21.09254456 C-30.340768 14.6877435 -29.61016382 9.76089567 -25.875 4.4375 C-18.73919905 -2.5153317 -9.16048654 -3.56921967 0 0 Z"/>
<path transform="translate(308,425)" fill="#EC4A93" d="M0 0 C27 0 27 0 35 4 C38.13476465 9.09863895 38.46795705 13.75268431 38.375 19.5625 C38.38660156 20.29146484 38.39820313 21.02042969 38.41015625 21.77148438 C38.37983622 27.38574264 37.17061333 31.58820741 33.3125 35.875 C32.879375 36.24625 32.44625 36.6175 32 37 C32.598125 37.20625 33.19625 37.4125 33.8125 37.625 C36.98657119 39.62013046 37.63141428 41.50164886 39 45 C39.45234031 48.42439444 39.47563233 51.79948163 39.4375 55.25 C39.43065186 56.18642334 39.42380371 57.12284668 39.41674805 58.08764648 C39.22841376 66.17473487 38.33433988 72.66566012 32.4375 78.5625 C22.23560442 84.57900252 14.11676657 81 0 81 C0 54.27 0 27.54 0 0 Z"/>
<path transform="translate(257,425)" fill="#EC4A93" d="M0 0 C5.61 0 11.22 0 17 0 C18.51734937 6.66403438 19.86286439 13.3458688 21.125 20.0625 C21.74375 23.341875 22.3625 26.62125 23 30 C23.33 20.1 23.66 10.2 24 0 C29.28 0 34.56 0 40 0 C40 26.73 40 53.46 40 81 C34.72 81 29.44 81 24 81 C21.69 69.78 19.38 58.56 17 47 C16.67 58.22 16.34 69.44 16 81 C10.72 81 5.44 81 0 81 C0 54.27 0 27.54 0 0 Z"/>
<path transform="translate(134,425)" fill="#EC4B94" d="M0 0 C31 0 31 0 38 6 C40.32739601 10.6740267 40.33514697 15.31475489 40.3125 20.4375 C40.32861328 21.16259766 40.34472656 21.88769531 40.36132812 22.63476562 C40.36660093 28.50340228 39.28180639 33.38014822 35.3125 37.9375 C34.879375 38.288125 34.44625 38.63875 34 39 C34.639375 39.61875 35.27875 40.2375 35.9375 40.875 C39.62176448 44.67090886 39.13105585 48.04134241 39.09765625 53.0703125 C39.0962413 53.86654022 39.09482635 54.66276794 39.09336853 55.48312378 C39.08776345 58.0304538 39.07521014 60.57769647 39.0625 63.125 C39.05748565 64.85025915 39.05292263 66.57551967 39.04882812 68.30078125 C39.03864253 72.53391504 39.0190682 76.76685954 39 81 C33.72 81 28.44 81 23 81 C22.67 69.45 22.34 57.9 22 46 C20.35 45.34 18.7 44.68 17 44 C17 56.21 17 68.42 17 81 C11.39 81 5.78 81 0 81 C0 54.27 0 27.54 0 0 Z"/>
<path transform="translate(188,425)" fill="#EC4993" d="M0 0 C9.24 0 18.48 0 28 0 C29.96027766 17.66240021 31.91080794 35.3260628 33.55429077 53.02127075 C33.68313563 54.4062575 33.81364629 55.79109044 33.94595337 57.17575073 C34.70477144 65.15327202 35.13699212 72.98596119 35 81 C30.05 81 25.1 81 20 81 C19.505 74.565 19.505 74.565 19 68 C15.7 68 12.4 68 9 68 C9 72.29 9 76.58 9 81 C3.72 81 -1.56 81 -7 81 C-6.32371206 64.58931661 -4.77474461 48.29205868 -3.14996338 31.95452881 C-2.79148919 28.34043752 -2.43792825 24.72586542 -2.08398438 21.11132812 C-1.39449299 14.07369159 -0.69708208 7.03690503 0 0 Z"/>
<path transform="translate(672.01953125,426.7265625)" fill="#EC4C94" d="M0 0 C3.54547516 2.27973354 6.26556802 5.07487099 7.59936523 9.17675781 C8.01052398 11.4387894 8.09365591 13.52173795 8.078125 15.8203125 C8.07490234 16.66464844 8.07167969 17.50898438 8.06835938 18.37890625 C8.05579102 19.68794922 8.05579102 19.68794922 8.04296875 21.0234375 C8.03845703 21.91160156 8.03394531 22.79976563 8.02929688 23.71484375 C8.01754297 25.90107066 7.99960841 28.08726278 7.98046875 30.2734375 C2.70046875 30.2734375 -2.57953125 30.2734375 -8.01953125 30.2734375 C-8.34953125 24.9934375 -8.67953125 19.7134375 -9.01953125 14.2734375 C-10.66953125 13.9434375 -12.31953125 13.6134375 -14.01953125 13.2734375 C-14.01953125 29.7734375 -14.01953125 46.2734375 -14.01953125 63.2734375 C-12.69953125 63.6034375 -11.37953125 63.9334375 -10.01953125 64.2734375 C-8.9012931 62.03696119 -8.82557064 60.62452221 -8.703125 58.140625 C-8.66123047 57.33496094 -8.61933594 56.52929688 -8.57617188 55.69921875 C-8.53685547 54.85746094 -8.49753906 54.01570313 -8.45703125 53.1484375 C-8.41384766 52.29894531 -8.37066406 51.44945312 -8.32617188 50.57421875 C-8.21998889 48.47415527 -8.11924628 46.37381802 -8.01953125 44.2734375 C-2.73953125 44.2734375 2.54046875 44.2734375 7.98046875 44.2734375 C8.08862925 48.14918858 8.16787195 52.02190709 8.23046875 55.8984375 C8.28074219 57.54005859 8.28074219 57.54005859 8.33203125 59.21484375 C8.40918462 65.57999702 8.31257873 69.46527148 3.98046875 74.2734375 C-1.51823503 79.48273582 -7.08602201 80.75706346 -14.48828125 80.58984375 C-19.77670809 79.9287904 -23.60350944 77.68945931 -27.33203125 73.9609375 C-31.76136797 66.90680865 -32.47722407 61.47663039 -32.453125 53.2578125 C-32.45836685 52.20619934 -32.4636087 51.15458618 -32.4690094 50.07110596 C-32.47541327 47.85226318 -32.47411387 45.63338638 -32.46557617 43.41455078 C-32.45709283 40.04787532 -32.48580933 36.68291328 -32.51757812 33.31640625 C-32.5191912 31.15104217 -32.51861058 28.98567512 -32.515625 26.8203125 C-32.52685898 25.82723083 -32.53809296 24.83414917 -32.54966736 23.81097412 C-32.47769193 16.46384032 -31.42769446 8.42722044 -26.60765076 2.55267334 C-18.79597337 -4.31745874 -9.06878562 -4.52636734 0 0 Z"/>
<path transform="translate(551,425)" fill="#EC4A93" d="M0 0 C5.28 0 10.56 0 16 0 C16 22.11 16 44.22 16 67 C21.61 67 27.22 67 33 67 C33 71.62 33 76.24 33 81 C22.11 81 11.22 81 0 81 C0 54.27 0 27.54 0 0 Z"/>
<path transform="translate(231,425)" fill="#EC4B94" d="M0 0 C5.28 0 10.56 0 16 0 C16 26.73 16 53.46 16 81 C10.72 81 5.44 81 0 81 C0 54.27 0 27.54 0 0 Z"/>
<path transform="translate(609,439)" fill="#FDF3F8" d="M0 0 C2.5625 0.25 2.5625 0.25 5 1 C6.17548265 3.3509653 6.13278772 4.76562162 6.14526367 7.38623047 C6.15483345 8.74806961 6.15483345 8.74806961 6.16459656 10.13742065 C6.16570938 11.12074371 6.1668222 12.10406677 6.16796875 13.1171875 C6.17129715 14.12588898 6.17462555 15.13459045 6.17805481 16.17385864 C6.18312405 18.31072533 6.18546314 20.44759996 6.18530273 22.58447266 C6.18748639 25.85462507 6.20563446 29.1244387 6.22460938 32.39453125 C6.22754384 34.46874884 6.22952828 36.54296804 6.23046875 38.6171875 C6.23765427 39.5964621 6.24483978 40.57573669 6.25224304 41.58468628 C6.24916641 42.49888336 6.24608978 43.41308044 6.24291992 44.35498047 C6.24434494 45.15725067 6.24576996 45.95952087 6.24723816 46.78610229 C5.9731103 49.24078425 5.22526321 50.87288945 4 53 C-0.875 52.125 -0.875 52.125 -2 51 C-2.10358779 49.47613769 -2.13851138 47.94753014 -2.14526367 46.42016602 C-2.15164352 45.44568008 -2.15802338 44.47119415 -2.16459656 43.46717834 C-2.16570938 42.40679855 -2.1668222 41.34641876 -2.16796875 40.25390625 C-2.17129715 39.17245834 -2.17462555 38.09101044 -2.17805481 36.97679138 C-2.18312877 34.68432034 -2.18546299 32.39184188 -2.18530273 30.09936523 C-2.18748845 26.58109433 -2.20563728 23.06313719 -2.22460938 19.54492188 C-2.22754328 17.32291775 -2.22952809 15.10091212 -2.23046875 12.87890625 C-2.23765427 11.82055069 -2.24483978 10.76219513 -2.25224304 9.67176819 C-2.24916641 8.6941301 -2.24608978 7.716492 -2.24291992 6.70922852 C-2.24434494 5.84620621 -2.24576996 4.9831839 -2.24723816 4.0940094 C-2 2 -2 2 0 0 Z"/>
<path transform="translate(374,439)" fill="#FEFDFD" d="M0 0 C2.625 0.375 2.625 0.375 5 1 C5.05058526 8.08411622 5.08568494 15.16818612 5.10986328 22.25244141 C5.11993954 24.66391744 5.13360081 27.07538122 5.15087891 29.48681641 C5.1750559 32.94697085 5.18646669 36.4069642 5.1953125 39.8671875 C5.20563507 40.95055389 5.21595764 42.03392029 5.22659302 43.15011597 C5.22674408 44.1510025 5.22689514 45.15188904 5.22705078 46.18310547 C5.231492 47.06690887 5.23593323 47.95071228 5.24050903 48.86129761 C5 51 5 51 3 53 C-0.53571429 52.46428571 -0.53571429 52.46428571 -2 51 C-2.10358779 49.47613769 -2.13851138 47.94753014 -2.14526367 46.42016602 C-2.15164352 45.44568008 -2.15802338 44.47119415 -2.16459656 43.46717834 C-2.16570938 42.40679855 -2.1668222 41.34641876 -2.16796875 40.25390625 C-2.17129715 39.17245834 -2.17462555 38.09101044 -2.17805481 36.97679138 C-2.18312877 34.68432034 -2.18546299 32.39184188 -2.18530273 30.09936523 C-2.18748845 26.58109433 -2.20563728 23.06313719 -2.22460938 19.54492188 C-2.22754328 17.32291775 -2.22952809 15.10091212 -2.23046875 12.87890625 C-2.23765427 11.82055069 -2.24483978 10.76219513 -2.25224304 9.67176819 C-2.24916641 8.6941301 -2.24608978 7.716492 -2.24291992 6.70922852 C-2.24434494 5.84620621 -2.24576996 4.9831839 -2.24723816 4.0940094 C-2 2 -2 2 0 0 Z"/>
<path transform="translate(323,468)" fill="#FDEFF5" d="M0 0 C1.98 0 3.96 0 6 0 C8.8199387 2.8199387 8.28962838 4.92904159 8.32226562 8.78320312 C8.31904297 9.65912109 8.31582031 10.53503906 8.3125 11.4375 C8.32861328 12.30955078 8.34472656 13.18160156 8.36132812 14.08007812 C8.36197266 14.91861328 8.36261719 15.75714844 8.36328125 16.62109375 C8.36775269 17.77242798 8.36775269 17.77242798 8.37231445 18.94702148 C8 21 8 21 6.78979492 22.77368164 C5 24 5 24 0 24 C0 16.08 0 8.16 0 0 Z"/>
<path transform="translate(201,439)" fill="#FCEAF2" d="M0 0 C0.66 0 1.32 0 2 0 C2.43199411 4.55278894 2.85905562 9.10600509 3.28173828 13.65966797 C3.42592189 15.20569047 3.57140527 16.75159238 3.71826172 18.29736328 C3.9302587 20.53126343 4.13743147 22.76556908 4.34375 25 C4.40937134 25.68054443 4.47499268 26.36108887 4.54260254 27.06225586 C4.96760976 31.73305957 5.05488851 36.3161802 5 41 C2.69 41 0.38 41 -2 41 C-2.45620283 27.2885704 -1.11094101 13.65334685 0 0 Z"/>
<path transform="translate(518,468)" fill="#FEF8FB" d="M0 0 C5 0 5 0 6.78515625 0.97265625 C8.752839 4.25634547 8.47181352 7.72228171 8.4375 11.4375 C8.45748047 12.20126953 8.47746094 12.96503906 8.49804688 13.75195312 C8.49480439 17.47757398 8.40502166 19.42228779 6.22265625 22.53515625 C4 24 4 24 0 24 C0 16.08 0 8.16 0 0 Z"/>
<path transform="translate(437,372)" fill="#080205" d="M0 0 C2.5625 0.25 2.5625 0.25 5 1 C6.84415278 4.68830555 6.55187713 9.07413912 5.43359375 12.9765625 C4.16135503 16.10720228 2.90216323 19.14261554 0 21 C-2.125 20.8125 -2.125 20.8125 -4 20 C-5.84377293 16.31245414 -5.35879563 12.03335783 -5 8 C-3.66362375 4.598315 -2.56521154 2.56521154 0 0 Z"/>
<path transform="translate(500,359)" fill="#080205" d="M0 0 C2.5625 0.25 2.5625 0.25 5 1 C6.78281113 4.56562226 6.44305791 8.3316578 5.43359375 12.1328125 C4.14972342 15.77604662 3.05314745 18.49345184 0 21 C-2.125 20.8125 -2.125 20.8125 -4 20 C-5.84377293 16.31245414 -5.35879563 12.03335783 -5 8 C-3.66362375 4.598315 -2.56521154 2.56521154 0 0 Z"/>
<path transform="translate(460,328)" fill="#070204" d="M0 0 C3.03276706 0 5.15333527 0.24541287 7.47265625 2.3125 C11.02976927 6.7925957 12.16232834 11.30691333 12 17 C11.67 17.66 11.34 18.32 11 19 C8.875 19.4375 8.875 19.4375 6 19 C2.29101918 15.69918453 -0.79374571 12.1180795 -1.1328125 6.9921875 C-1.11111111 1.11111111 -1.11111111 1.11111111 0 0 Z"/>
<path transform="translate(316,317)" fill="#070204" d="M0 0 C5.45323443 -0.55645249 8.32290242 0.24691522 12.484375 3.57421875 C14.59819147 5.56273166 15.91919299 7.29798248 17 10 C16.6875 12.8125 16.6875 12.8125 16 15 C10.66689031 15.50791521 8.13879419 14.34625913 4 11 C1.93319329 9.0656809 0.61515188 7.39825582 -1 5 C-0.8125 2.125 -0.8125 2.125 0 0 Z"/>
<path transform="translate(322.125,361.25)" fill="#070204" d="M0 0 C1.875 0.75 1.875 0.75 2.875 1.75 C3.57282597 8.87587678 2.76857603 13.84996274 -1.5625 19.6875 C-3.125 20.75 -3.125 20.75 -5.25 20.5625 C-7.125 19.75 -7.125 19.75 -8.125 17.75 C-8.82809342 10.98948635 -7.79412677 6.34751869 -3.6875 0.8125 C-2.125 -0.25 -2.125 -0.25 0 0 Z"/>
<path transform="translate(405,339)" fill="#070204" d="M0 0 C6.10830885 0.42616108 9.74712874 3.16213134 14.375 6.9375 C16 9 16 9 16.3125 11.6875 C16 14 16 14 15 15 C10.16634842 15.69052165 7.52802043 15.01883258 3.6875 12.1875 C1.18485102 10.19619776 -0.19261187 8.71108219 -2 6 C-1.45945946 1.45945946 -1.45945946 1.45945946 0 0 Z"/>
<path transform="translate(408,293)" fill="#070204" d="M0 0 C1.32 0.66 2.64 1.32 4 2 C4.44616681 8.96515961 4.69925348 13.60967983 0 19 C-0.66 19.66 -1.32 20.32 -2 21 C-4.0625 20.75 -4.0625 20.75 -6 20 C-7.73913896 16.52172208 -7.45982922 12.8029119 -7 9 C-5.4814494 5.00064893 -3.60743246 2.40495497 0 0 Z"/>
<path transform="translate(363,343)" fill="#060104" d="M0 0 C2.1875 -0.3125 2.1875 -0.3125 5 0 C8.18527919 2.66674537 10.43841245 5.15609218 12 9 C12.1953125 11.359375 12.1953125 11.359375 12.125 13.75 C12.10695313 14.54921875 12.08890625 15.3484375 12.0703125 16.171875 C12.03550781 17.07679688 12.03550781 17.07679688 12 18 C10.35 18.33 8.7 18.66 7 19 C6.03644756 17.92130607 5.07938583 16.83681257 4.125 15.75 C3.59132813 15.14671875 3.05765625 14.5434375 2.5078125 13.921875 C-0.62229165 9.93220858 -1.33158187 7.08425541 -1 2 C-0.67 1.34 -0.34 0.68 0 0 Z"/>
<path transform="translate(518,437)" fill="#FDF5F9" d="M0 0 C1.65 0 3.3 0 5 0 C7 2 7 2 7.23046875 5.1875 C7.20919922 7.0746875 7.20919922 7.0746875 7.1875 9 C7.18105469 10.258125 7.17460938 11.51625 7.16796875 12.8125 C7 16 7 16 6 18 C4.02 18 2.04 18 0 18 C0 12.06 0 6.12 0 0 Z"/>
<path transform="translate(151,440)" fill="#FEFAFC" d="M0 0 C1.98 0 3.96 0 6 0 C7.72973114 1.72973114 7.17208117 4.02516963 7.1875 6.375 C7.20167969 7.35210937 7.21585938 8.32921875 7.23046875 9.3359375 C7 12 7 12 5 15 C3.35 15 1.7 15 0 15 C0 10.05 0 5.1 0 0 Z"/>
<path transform="translate(324,438)" fill="#FEFEFE" d="M0 0 C1.65 0 3.3 0 5 0 C6.75559942 1.75559942 6.13221919 4.03582442 6.13671875 6.37109375 C6.13285156 7.07363281 6.12898438 7.77617187 6.125 8.5 C6.12886719 9.20253906 6.13273437 9.90507812 6.13671875 10.62890625 C6.12661378 15.87338622 6.12661378 15.87338622 5 17 C3.35 17 1.7 17 0 17 C0 11.39 0 5.78 0 0 Z"/>
<path transform="translate(446,459)" fill="#FBDFEC" d="M0 0 C0.99 0.33 1.98 0.66 3 1 C2.67 5.29 2.34 9.58 2 14 C1.67 14 1.34 14 1 14 C0.67 9.38 0.34 4.76 0 0 Z"/>
<path transform="translate(435,468)" fill="#FAD2E4" d="M0 0 C0.33 0 0.66 0 1 0 C1.33 3.96 1.66 7.92 2 12 C1.01 12 0.02 12 -1 12 C-0.67 8.04 -0.34 4.08 0 0 Z"/>
<path transform="translate(422,459)" fill="#FCE3EE" d="M0 0 C3 3 3 3 3.07421875 5.48046875 C2.94660156 6.37378906 2.81898438 7.26710938 2.6875 8.1875 C2.56761719 9.08855469 2.44773437 9.98960937 2.32421875 10.91796875 C2.21722656 11.60503906 2.11023438 12.29210937 2 13 C1.67 13 1.34 13 1 13 C0.67 8.71 0.34 4.42 0 0 Z"/>
</svg>